<?xml version="1.0" standalone="no"?>
<!DOCTYPE svg PUBLIC "-//W3C//DTD SVG 20010904//EN"
 "http://www.w3.org/TR/2001/REC-SVG-20010904/DTD/svg10.dtd">
<svg version="1.0" xmlns="http://www.w3.org/2000/svg"
 width="200.000000pt" height="50.000000pt" viewBox="0 0 400.000000 120.000000"
 preserveAspectRatio="xMidYMid meet">

<g transform="translate(0.000000,120.000000) scale(0.100000,-0.100000)"
fill="#000000" stroke="none">
<path d="M1505 1174 c-144 -22 -259 -53 -435 -119 -177 -67 -531 -185 -554
-185 -8 0 -24 -15 -35 -34 -23 -37 -61 -174 -60 -215 0 -14 9 6 19 46 16 62
41 122 67 160 5 7 94 37 198 68 105 31 258 78 342 106 305 99 448 124 718 124
167 0 228 -4 300 -19 161 -34 310 -93 424 -170 l53 -36 122 0 c316 0 644 -60
792 -145 48 -28 86 -80 114 -155 l20 -55 -6 45 c-16 115 -75 189 -200 247
-161 74 -381 113 -660 117 l-181 3 -47 33 c-109 74 -325 157 -480 185 -110 19
-384 19 -511 -1z"/>
<path d="M806 720 c-25 -27 -46 -52 -46 -56 0 -4 1 -5 3 -3 2 2 25 28 52 57
26 28 45 52 43 52 -3 0 -26 -22 -52 -50z"/>
<path d="M1245 720 c27 -30 51 -57 53 -60 3 -3 0 4 -6 15 -6 11 -30 38 -53 60
-43 39 -43 39 6 -15z"/>
<path d="M925 736 c-89 -41 -135 -115 -135 -213 0 -168 151 -279 314 -231 60
18 139 100 154 160 16 61 15 84 -3 145 -40 134 -198 201 -330 139z m168 -60
c42 -17 83 -66 98 -116 22 -74 -19 -157 -95 -191 -53 -24 -90 -24 -143 2 -121
59 -123 236 -3 297 51 25 96 28 143 8z"/>
<path d="M3107 748 c-25 -13 -25 -195 -1 -205 35 -13 49 11 52 88 4 110 -9
141 -51 117z"/>
<path d="M2956 690 c-56 -52 -81 -119 -73 -195 23 -227 321 -295 442 -101 27
44 30 58 30 125 0 84 -14 118 -66 170 -22 23 -39 31 -58 29 -39 -5 -38 -35 2
-77 61 -62 72 -123 36 -198 -40 -83 -148 -118 -228 -72 -102 57 -120 188 -36
269 39 38 44 64 15 80 -17 9 -27 4 -64 -30z"/>
<path d="M1438 353 c-25 -6 -22 -30 4 -36 29 -8 52 11 37 29 -6 8 -14 13 -18
13 -3 -1 -14 -3 -23 -6z m19 -25 c-3 -8 -6 -5 -6 6 -1 11 2 17 5 13 3 -3 4
-12 1 -19z"/>
<path d="M1595 351 c-10 -4 -34 -6 -52 -4 -25 3 -33 0 -33 -12 0 -12 10 -15
43 -14 24 1 49 -1 56 -5 19 -12 44 14 30 30 -13 16 -16 16 -44 5z m22 -23 c-3
-8 -6 -5 -6 6 -1 11 2 17 5 13 3 -3 4 -12 1 -19z"/>
<path d="M1768 353 c-25 -6 -22 -30 4 -36 29 -8 52 11 37 29 -6 8 -14 13 -18
13 -3 -1 -14 -3 -23 -6z m19 -25 c-3 -8 -6 -5 -6 6 -1 11 2 17 5 13 3 -3 4
-12 1 -19z"/>
<path d="M1350 335 c0 -7 14 -12 30 -13 19 0 30 4 30 13 0 9 -11 13 -30 13
-16 -1 -30 -6 -30 -13z"/>
<path d="M1680 335 c0 -10 10 -15 30 -15 20 0 30 5 30 15 0 10 -10 15 -30 15
-20 0 -30 -5 -30 -15z"/>
<path d="M400 170 c0 -73 3 -90 15 -90 10 0 15 11 15 35 l0 35 60 0 60 0 0
-35 c0 -24 5 -35 15 -35 12 0 15 17 15 90 0 73 -3 90 -15 90 -10 0 -15 -11
-15 -35 l0 -35 -60 0 -60 0 0 35 c0 24 -5 35 -15 35 -12 0 -15 -17 -15 -90z"/>
<path d="M620 190 l0 -70 40 0 c33 0 40 -3 40 -20 0 -26 26 -26 33 0 3 13 14
20 29 20 37 0 48 19 48 82 0 44 -4 58 -14 58 -11 0 -16 -15 -18 -52 l-3 -53
-57 -3 -58 -3 0 56 c0 48 -2 55 -20 55 -18 0 -20 -7 -20 -70z"/>
<path d="M850 170 l0 -90 84 0 c98 0 94 -5 94 108 l1 72 -90 0 -89 0 0 -90z
m140 34 c0 -10 -13 -14 -50 -14 -37 0 -50 4 -50 14 0 10 14 16 43 18 50 4 57
2 57 -18z m-2 -71 c-2 -14 -15 -19 -51 -21 -42 -3 -47 -1 -47 17 0 18 6 21 51
21 43 0 50 -3 47 -17z"/>
<path d="M1087 242 c-13 -14 -17 -38 -17 -90 0 -65 2 -72 20 -72 16 0 20 7 20
30 0 28 2 30 40 30 35 0 43 -4 58 -30 9 -16 25 -30 35 -30 16 0 16 2 3 29 -14
26 -14 30 -1 41 10 8 15 30 15 61 l0 49 -78 0 c-64 0 -82 -4 -95 -18z m141
-48 c-3 -16 -14 -20 -61 -22 -55 -3 -57 -2 -57 22 0 23 4 25 53 28 59 3 70 -2
65 -28z"/>
<path d="M1300 170 c0 -83 1 -90 20 -90 19 0 20 7 20 90 0 83 -1 90 -20 90
-19 0 -20 -7 -20 -90z"/>
<path d="M1380 170 l0 -90 64 0 c92 0 109 16 114 109 l4 71 -91 0 -91 0 0 -90z
m145 12 c-10 -52 -21 -62 -71 -62 l-44 0 0 48 c0 27 2 51 4 53 2 2 30 2 61 1
l57 -4 -7 -36z"/>
<path d="M1702 248 c-6 -7 -12 -48 -14 -91 -3 -68 -1 -77 15 -77 12 0 17 8 17
30 0 29 2 30 44 30 39 0 45 -3 56 -30 8 -18 20 -30 31 -30 18 0 19 2 5 29 -13
25 -13 31 -2 40 8 7 16 34 18 61 l3 50 -81 0 c-53 0 -85 -4 -92 -12z m136 -54
c-3 -16 -14 -20 -61 -22 -55 -3 -57 -2 -57 22 0 23 4 25 53 28 59 3 70 -2 65
-28z"/>
<path d="M1918 183 c2 -43 8 -84 14 -90 16 -20 158 -18 158 2 0 11 -16 15 -67
17 -55 2 -68 6 -71 21 -3 15 5 17 67 17 64 0 71 2 71 20 0 18 -7 20 -71 20
-60 0 -70 2 -67 16 2 13 16 17 68 18 53 1 65 4 68 19 3 15 -6 17 -85 17 l-88
0 3 -77z"/>
<path d="M2142 248 c-7 -7 -12 -43 -12 -90 0 -63 3 -78 15 -78 12 0 15 14 15
70 0 40 4 70 10 71 6 0 31 1 58 1 l47 1 3 -72 c2 -54 6 -71 17 -71 12 0 15 18
15 90 l0 90 -78 0 c-47 0 -83 -5 -90 -12z"/>
<path d="M2354 243 c2 -13 13 -18 37 -18 l34 -1 3 -72 c2 -60 6 -72 20 -72 15
0 17 9 14 69 l-4 70 39 3 c27 2 39 8 41 21 3 15 -6 17 -91 17 -85 0 -95 -2
-93 -17z"/>
<path d="M2672 248 c-18 -18 -16 -168 2 -168 8 0 16 10 18 23 3 20 9 22 58 22
51 0 55 -2 52 -22 -3 -18 2 -23 17 -23 20 0 21 6 21 90 l0 90 -78 0 c-47 0
-83 -5 -90 -12z m131 -54 c6 -32 2 -34 -60 -34 -52 0 -53 1 -53 29 0 34 6 37
64 33 37 -3 45 -8 49 -28z"/>
<path d="M2960 182 c0 -47 5 -83 12 -90 7 -7 42 -12 85 -12 57 0 73 3 73 15 0
11 -16 15 -67 17 l-68 3 0 54 0 55 68 -3 c62 -2 67 -1 67 18 0 20 -6 21 -85
21 l-85 0 0 -78z"/>
<path d="M3186 244 c-22 -21 -23 -164 -2 -164 8 0 16 10 18 23 3 20 9 22 58
22 49 0 55 -2 58 -23 2 -12 10 -22 18 -22 11 0 14 19 14 90 l0 90 -74 0 c-54
0 -79 -4 -90 -16z m129 -50 c0 -28 -1 -29 -55 -29 -50 0 -55 2 -58 24 -5 31 6
36 65 35 46 -1 48 -3 48 -30z"/>
<path d="M3407 242 c-13 -14 -17 -38 -17 -90 0 -65 2 -72 20 -72 16 0 20 7 20
30 0 28 2 30 40 30 35 0 43 -4 58 -30 9 -16 25 -30 35 -30 16 0 16 2 1 25 -15
24 -15 27 0 44 10 11 16 35 16 64 l0 47 -78 0 c-64 0 -82 -4 -95 -18z m141
-48 c-3 -16 -14 -20 -61 -22 -55 -3 -57 -2 -57 22 0 23 4 25 53 28 59 3 70 -2
65 -28z"/>
</g>
</svg>
